<svg width="172" height="223" viewBox="0 0 172 223" fill="none" xmlns="http://www.w3.org/2000/svg">
<g clip-path="url(#clip0)">
<path fill-rule="evenodd" clip-rule="evenodd" d="M145.821 68.6858C146.015 68.8419 146.311 68.8283 146.446 68.6185L154.136 56.5814C155.027 55.2063 154.588 53.3706 153.179 52.5058L140.089 44.6516C138.684 43.7815 136.806 44.2081 135.923 45.5858L134.303 48.1191C131.087 53.1467 132.997 59.8192 138.011 63.0558C140.716 64.8019 143.323 66.6808 145.821 68.6858Z" fill="#010E8A"/>
<path fill-rule="evenodd" clip-rule="evenodd" d="M25.8663 68.6185C26.0032 68.8281 26.2958 68.8425 26.491 68.6858C28.9902 66.6803 31.5979 64.801 34.3031 63.0545C39.3154 59.8185 41.2248 53.1482 38.0119 48.121L36.3916 45.5858C35.5059 44.2081 33.6275 43.7815 32.2227 44.6516L19.1299 52.5058C17.7237 53.3706 17.2862 55.2063 18.1733 56.5814L25.8663 68.6185Z" fill="#010E8A"/>
<path fill-rule="evenodd" clip-rule="evenodd" d="M86.1567 213.3C44.7617 213.3 11.0864 180.366 11.0864 139.886C11.0864 99.4059 44.7617 66.4714 86.1567 66.4714C127.55 66.4714 161.227 99.4059 161.227 139.886C161.227 180.366 127.55 213.3 86.1567 213.3ZM86.1567 57.1296C39.4194 57.1296 1.53369 94.1829 1.53369 139.886C1.53369 185.589 39.4194 222.641 86.1567 222.641C132.891 222.641 170.78 185.589 170.78 139.886C170.78 94.1829 132.891 57.1296 86.1567 57.1296Z" fill="#010E8A"/>
<path fill-rule="evenodd" clip-rule="evenodd" d="M129.429 117.297L108.013 132.387C106.077 133.751 103.364 132.755 102.149 130.723C100.781 128.443 101.259 125.146 103.679 124.045L127.091 113.394C129.134 112.464 131.242 112.436 131.777 113.331C132.313 114.225 131.256 116.009 129.429 117.297ZM90.6949 147.463C86.4149 149.916 80.9147 148.509 78.4061 144.325C75.9002 140.14 77.3371 134.758 81.6171 132.308C85.8944 129.856 91.3999 131.261 93.9072 135.447C96.4131 139.632 94.9762 145.012 90.6949 147.463ZM64.928 157.796C63.1392 159.132 60.8822 159.195 59.9122 157.935C58.9449 156.675 57.6203 154.463 56.9674 153.019C56.3172 151.576 57.4772 149.683 59.5442 148.812L64.4019 146.764C66.5483 145.86 68.9662 147.05 70.1646 149.047C71.2254 150.821 71.0551 153.215 69.3998 154.452L64.928 157.796ZM86.1567 76.4007C50.3019 76.4007 21.2385 104.825 21.2385 139.886C21.2385 174.947 50.3019 203.371 86.1567 203.371C122.009 203.371 151.075 174.947 151.075 139.886C151.075 104.825 122.009 76.4007 86.1567 76.4007Z" fill="#010E8A"/>
<path fill-rule="evenodd" clip-rule="evenodd" d="M93.5754 25.1227L78.9199 25.0992C77.3559 25.1005 76.0808 26.3604 76.0862 27.8886L76.1195 38.2579C76.1366 43.5907 80.8506 47.636 86.1834 47.636C91.5555 47.636 96.3108 43.576 96.3508 38.2041L96.4278 27.8899C96.4278 26.3604 95.1381 25.1201 93.5754 25.1227Z" fill="#010E8A"/>
<path fill-rule="evenodd" clip-rule="evenodd" d="M86.1059 0.6185C72.3802 0.6185 61.2528 11.499 61.2528 24.9216C61.2528 31.8211 64.2082 38.0351 68.9303 42.4596C68.9495 42.4776 68.9704 42.4937 68.9927 42.5076C69.2658 42.6784 69.6201 42.4821 69.6201 42.16V23.7847C70.2208 15.394 77.3746 8.74223 86.1059 8.74223C94.6939 8.74223 101.769 15.1755 102.57 23.3725V41.9189C102.57 42.3347 103.03 42.5862 103.38 42.362C103.408 42.344 103.435 42.3232 103.459 42.3001C108.079 37.8867 110.958 31.7374 110.958 24.9216C110.958 11.499 99.8302 0.6185 86.1059 0.6185Z" fill="#010E8A"/>
</g>
<defs>
<clipPath id="clip0">
<rect width="171.253" height="222.424" fill="white" transform="translate(0.736328 0.433594)"/>
</clipPath>
</defs>
</svg>
