<svg width="211" height="203" viewBox="0 0 211 203" fill="none" xmlns="http://www.w3.org/2000/svg">
<path fill-rule="evenodd" clip-rule="evenodd" d="M82.9542 76.5216C80.4351 76.5216 78.3906 74.505 78.3906 72.0203V63.0178C78.3906 57.8863 93.4731 49.514 105.781 49.514C118.071 49.514 133.153 57.8863 133.153 63.0178V72.0203C133.153 74.505 131.109 76.5216 128.59 76.5216H82.9542Z" fill="white" stroke="white" stroke-width="3"/>
<path fill-rule="evenodd" clip-rule="evenodd" d="M105.772 49.5139C116.747 49.5139 124.026 40.876 124.026 30.226V23.7937C124.026 13.1392 116.747 4.50125 105.772 4.50125C94.7967 4.50125 87.5179 13.1392 87.5179 23.7937V30.226C87.5179 40.876 94.7967 49.5139 105.772 49.5139Z" fill="white" stroke="white" stroke-width="3"/>
<path fill-rule="evenodd" clip-rule="evenodd" d="M82.9542 193.555C80.4351 193.555 78.3906 191.538 78.3906 189.053V180.051C78.3906 174.919 93.4731 166.547 105.781 166.547C118.071 166.547 133.153 174.919 133.153 180.051V189.053C133.153 191.538 131.109 193.555 128.59 193.555H82.9542Z" fill="white" stroke="white" stroke-width="3"/>
<path fill-rule="evenodd" clip-rule="evenodd" d="M105.772 166.547C116.747 166.547 124.026 157.914 124.026 147.259V140.827C124.026 130.172 116.747 121.534 105.772 121.534C94.7967 121.534 87.5179 130.172 87.5179 140.827V147.259C87.5179 157.914 94.7967 166.547 105.772 166.547Z" fill="white" stroke="white" stroke-width="3"/>
<path fill-rule="evenodd" clip-rule="evenodd" d="M9.93769 139.539C7.41861 139.539 5.37415 137.523 5.37415 135.038V126.036C5.37415 120.904 20.4566 112.532 32.7645 112.532C45.0541 112.532 60.1366 120.904 60.1366 126.036V135.038C60.1366 137.523 58.0922 139.539 55.5731 139.539H9.93769Z" fill="white" stroke="white" stroke-width="3"/>
<path fill-rule="evenodd" clip-rule="evenodd" d="M32.7553 112.532C43.7306 112.532 51.0094 103.898 51.0094 93.2438V86.8115C51.0094 76.157 43.7306 67.519 32.7553 67.519C21.7799 67.519 14.5011 76.157 14.5011 86.8115V93.2438C14.5011 103.898 21.7799 112.532 32.7553 112.532Z" fill="white" stroke="white" stroke-width="3"/>
<path fill-rule="evenodd" clip-rule="evenodd" d="M155.971 139.539C153.452 139.539 151.407 137.523 151.407 135.038V126.036C151.407 120.904 166.49 112.532 178.798 112.532C191.087 112.532 206.17 120.904 206.17 126.036V135.038C206.17 137.523 204.125 139.539 201.606 139.539H155.971Z" fill="white" stroke="white" stroke-width="3"/>
<path fill-rule="evenodd" clip-rule="evenodd" d="M178.789 112.532C189.764 112.532 197.043 103.898 197.043 93.2438V86.8115C197.043 76.157 189.764 67.519 178.789 67.519C167.813 67.519 160.534 76.157 160.534 86.8115V93.2438C160.534 103.898 167.813 112.532 178.789 112.532Z" fill="white" stroke="white" stroke-width="3"/>
<path fill-rule="evenodd" clip-rule="evenodd" d="M32.7553 52.5253C42.3935 39.1565 55.8331 28.6416 71.5134 22.5063L32.7553 52.5253Z" fill="white" stroke="white" stroke-width="3"/>
<path fill-rule="evenodd" clip-rule="evenodd" d="M62.3909 178.867C50.6124 172.61 40.4677 163.738 32.7553 153.043L62.3909 178.867Z" fill="white" stroke="white" stroke-width="3"/>
<path fill-rule="evenodd" clip-rule="evenodd" d="M176.475 52.5253C166.837 39.1565 153.397 28.6416 137.717 22.5063L176.475 52.5253Z" fill="white" stroke="white" stroke-width="3"/>
<path fill-rule="evenodd" clip-rule="evenodd" d="M146.844 178.867C158.627 172.61 168.767 163.738 176.48 153.043L146.844 178.867Z" fill="white" stroke="white" stroke-width="3"/>
</svg>
