<svg width="163" height="166" viewBox="0 0 163 166" fill="none" xmlns="http://www.w3.org/2000/svg">
<g clip-path="url(#clip0)">
<path fill-rule="evenodd" clip-rule="evenodd" d="M126.514 15.8379C129.137 25.8827 123.094 36.1466 113.013 38.7607C102.935 41.3759 92.635 35.3522 90.0119 25.3074C87.3888 15.2615 93.4321 4.99768 103.512 2.38352C113.591 -0.231648 123.889 5.79304 126.514 15.8379Z" fill="#010E8A"/>
<path fill-rule="evenodd" clip-rule="evenodd" d="M116.764 75.8031C114.831 79.9343 113.211 83.4921 111.843 86.5807C117.274 91.9099 123.131 90.7644 123.131 90.7644C123.131 90.7644 136.737 90.1194 153.251 84.6034C158.055 83.2449 157.711 77.3292 152.373 77.1263C131.799 79.7243 122.245 77.7178 122.245 77.7178C120.977 75.5104 119.858 73.2788 118.849 71.0693C118.283 72.5924 117.6 74.168 116.764 75.8031Z" fill="#010E8A"/>
<path fill-rule="evenodd" clip-rule="evenodd" d="M83.3022 125.857C92.2634 126.564 100.507 128.44 107.91 130.914C109.053 127.039 111.577 120.473 116.627 114.761C99.4572 105.037 86.5087 101.892 86.5087 101.892C86.5087 101.892 86.5087 101.892 98.3472 101.486C100.281 94.8219 105.789 82.5394 110.394 72.7014C111.131 71.2732 111.724 69.9016 112.214 68.5803C110.857 67.7325 109.623 65.5705 109.409 60.0132C109 49.2911 102.67 44.0759 97.0781 42.8546C95.9043 42.6719 94.7457 42.5053 93.6043 42.3671C98.2621 44.8732 105.309 50.3276 105.085 60.3452C104.774 74.2659 81.8803 87.4548 73.542 76.1019L68.7667 94.3677C65.6615 101.462 57.7689 122.148 83.3022 125.857Z" fill="#010E8A"/>
<path fill-rule="evenodd" clip-rule="evenodd" d="M60.8528 120.311C60.6807 120.003 60.5287 119.686 60.3718 119.369C53.9254 125.851 44.6007 133.973 38.6546 137.923C35.5524 137.207 9.9644 122.169 8.81894 121.498C7.67145 120.828 3.21925 119.079 0.9739 122.797C-0.480461 125.202 2.0991 127.112 2.0991 127.112L27.1959 148.222C27.1959 148.222 35.9231 155.081 46.5634 151.215C54.0287 148.502 70.7508 138.316 80.0755 132.473C70.8399 130.707 64.3753 126.625 60.8528 120.311Z" fill="#010E8A"/>
<path fill-rule="evenodd" clip-rule="evenodd" d="M161.166 158.607C161.166 158.607 150.512 139.862 133.821 126C130.071 123.191 126.381 120.684 122.815 118.45L121.946 119.432C117.687 124.249 115.585 129.941 114.713 132.906L114.566 133.399C117.539 134.611 120.366 135.89 122.992 137.219C139.367 145.486 151.669 161.071 151.669 161.071C151.669 161.071 154.144 165.37 158.632 164.431C163.119 163.493 161.166 158.607 161.166 158.607Z" fill="#010E8A"/>
<path fill-rule="evenodd" clip-rule="evenodd" d="M77.3339 61.5988L74.8597 71.0633C86.8257 77.9066 96.6305 66.4123 98.017 60.8862C98.4424 46.7506 86.687 42.6537 82.6834 41.6706C71.4253 41.5798 62.21 43.4602 55.5458 45.1892C43.7266 48.2555 43.123 57.1709 43.123 57.1709C43.123 57.1709 40.2335 70.4355 41.3132 87.7606C41.3881 92.7356 47.2116 93.9337 48.7865 88.8477C51.5879 68.3684 56.0006 59.6882 56.0006 59.6882C61.66 58.0258 69.6377 57.6998 75.6426 57.7432C78.4601 58.6718 77.3339 61.5988 77.3339 61.5988Z" fill="#010E8A"/>
</g>
<defs>
<clipPath id="clip0">
<rect width="162.046" height="164.521" fill="white" transform="translate(0.529297 0.926025)"/>
</clipPath>
</defs>
</svg>
