<svg width="199" height="205" viewBox="0 0 199 205" fill="none" xmlns="http://www.w3.org/2000/svg">
<g clip-path="url(#clip0)">
<path fill-rule="evenodd" clip-rule="evenodd" d="M98.6068 49.5545C107.264 49.5545 114.279 42.5488 114.279 33.909C114.279 25.2691 107.264 18.2635 98.6068 18.2635C89.9451 18.2635 82.9301 25.2691 82.9301 33.909C82.9301 42.5488 89.9451 49.5545 98.6068 49.5545Z" fill="white"/>
<path fill-rule="evenodd" clip-rule="evenodd" d="M164.137 50.21C172.593 50.21 179.448 43.3682 179.448 34.9287C179.448 26.4891 172.593 19.6473 164.137 19.6473C155.68 19.6473 148.825 26.4891 148.825 34.9287C148.825 43.3682 155.68 50.21 164.137 50.21Z" fill="white"/>
<path fill-rule="evenodd" clip-rule="evenodd" d="M34.1396 50.21C42.6005 50.21 49.4559 43.3682 49.4559 34.9287C49.4559 26.4891 42.6005 19.6473 34.1396 19.6473C25.6832 19.6473 18.8278 26.4891 18.8278 34.9287C18.8278 43.3682 25.6832 50.21 34.1396 50.21Z" fill="white"/>
<path fill-rule="evenodd" clip-rule="evenodd" d="M98.6752 83.2535C95.2224 83.2535 92.4173 80.4585 92.4173 77.0081C92.4173 73.5621 95.2224 70.7672 98.6752 70.7672C102.133 70.7672 104.933 73.5621 104.933 77.0081C104.933 80.4585 102.133 83.2535 98.6752 83.2535ZM136.519 8.03954C136.519 5.24001 134.247 2.75458 131.447 2.75458C131.447 2.75458 131.447 2.75458 131.442 2.75458C128.642 2.75458 126.37 5.23546 126.37 8.03044C126.357 24.8048 119.67 39.4489 113.572 50.474C112.5 52.4086 111.392 54.4844 110.283 56.6102C109.855 56.2642 109.408 55.9456 108.947 55.6452L103.619 70.1663C102.643 69.4607 101.508 68.9554 100.276 68.7187L105.69 53.9837C103.724 53.2326 101.585 52.8274 99.3456 52.8274C99.2955 52.8274 99.2453 52.8274 99.1997 52.8274C96.9967 52.8274 94.894 53.2235 92.9509 53.9427L97.585 68.6413C96.3353 68.8052 95.1768 69.2377 94.1596 69.8795L89.6532 55.5814C89.1059 55.9274 88.5768 56.3052 88.0705 56.7104C86.9439 54.539 85.8173 52.4769 84.7272 50.5104C78.6289 39.4853 71.9606 25.4877 71.9469 8.18976C71.9423 5.30829 69.6024 2.75458 66.7152 2.75458H66.7107C63.8235 2.75458 61.4836 5.30829 61.4836 8.19431C61.5019 28.1734 66.8703 45.2482 73.2605 56.7968C76.2708 62.2366 79.1535 67.6809 81.5344 74.3997C81.5298 81.2961 81.6119 96.5274 82.2505 112.004L81.1239 197.656C81.0783 201.266 84.2574 204.043 87.587 204.043C90.9167 204.043 94.1733 201.526 94.2235 197.943L98.5566 126.903L100.732 127.045L104.472 197.301C104.491 200.897 107.2 203.947 111.054 203.947C114.904 203.947 117.586 200.916 117.572 197.31L117.184 111.618C117.467 110.243 116.842 80.4676 116.842 73.9855C119.209 67.3668 122.06 62.1956 125.039 56.815C131.429 45.2664 136.501 27.4177 136.519 8.03954Z" fill="white"/>
<path fill-rule="evenodd" clip-rule="evenodd" d="M155.101 86.4399C151.644 86.4399 148.843 83.645 148.843 80.1945C148.843 76.7486 151.644 73.9536 155.101 73.9536C158.554 73.9536 161.359 76.7486 161.359 80.1945C161.359 83.645 158.554 86.4399 155.101 86.4399ZM197.064 113.634L182.108 92.3531L171.197 64.285C170.905 63.4656 170.55 62.6736 170.139 61.9179L170.053 61.7267C169.902 61.3899 169.724 61.0712 169.528 60.7753L160.401 73.6896C159.516 72.8566 158.435 72.2284 157.236 71.8824L167.124 57.8939C163.941 54.7302 159.53 52.7956 154.681 52.8729C154.18 52.882 153.683 52.9185 153.195 52.9685L155.334 71.5911C155.256 71.5865 155.179 71.5774 155.101 71.5774C153.906 71.5774 152.779 71.8551 151.767 72.3422L149.628 53.7151C148.706 54.0155 147.817 54.3888 146.973 54.8303C146.303 39.7721 146.325 25.1007 147.703 7.78007C147.981 4.26131 145.354 1.18866 141.828 0.910983C140.966 0.83815 140.131 0.9474 139.356 1.19776C140.743 2.45414 141.577 4.31138 141.482 6.34161C140.391 28.97 137.883 43.0769 135.233 58.0122C134.996 59.3369 134.758 60.6706 134.521 62.0181C134.845 67.7537 135.251 73.5985 135.703 79.712C134.435 87.0818 133.563 97.8383 135.78 114.253C135.853 114.79 135.949 115.318 136.067 115.833L142.293 197.62C142.549 200.975 145.441 203.524 148.665 203.524C152.939 203.524 155.315 200.174 155.051 196.655L152.643 128.906C153.61 129.075 154.485 129.316 155.845 128.756L169.596 198.043C170.053 201.23 173.555 203.701 176.456 203.524C179.357 203.346 182.76 199.723 182.258 196.231L170.112 111.663C170.098 110.998 170.053 110.329 169.961 109.656C168.848 101.439 168.743 95.4804 169.072 90.8873L172.31 98.1433C172.484 98.5394 172.703 98.9126 172.953 99.2631L189.287 119.192C190.222 120.494 191.691 121.186 193.178 121.186C194.144 121.186 195.116 120.899 195.96 120.294C198.108 118.76 198.601 115.778 197.064 113.634Z" fill="white"/>
<path fill-rule="evenodd" clip-rule="evenodd" d="M43.1798 86.4399C39.7224 86.4399 36.9219 83.645 36.9219 80.1945C36.9219 76.7486 39.7224 73.9536 43.1798 73.9536C46.6371 73.9536 49.4377 76.7486 49.4377 80.1945C49.4377 83.645 46.6371 86.4399 43.1798 86.4399ZM63.7551 62.0181C63.5179 60.6706 63.2807 59.3369 63.0481 58.0122C60.3935 43.0769 57.8895 28.97 56.7993 6.34161C56.699 4.31138 57.5382 2.45414 58.9248 1.19776C58.1494 0.9474 57.3102 0.83815 56.4481 0.910983C52.9269 1.18866 50.2997 4.26131 50.5779 7.78007C51.9554 25.1007 51.9782 39.7721 51.3077 54.8303C50.4594 54.3888 49.5745 54.0155 48.6531 53.7151L46.5094 72.3422C45.5014 71.8551 44.3748 71.5774 43.1798 71.5774C43.1022 71.5774 43.0247 71.5865 42.9426 71.5911L45.0863 52.9685C44.5937 52.9185 44.1011 52.882 43.5994 52.8729C38.7509 52.7956 34.3403 54.7302 31.1566 57.8939L41.0452 71.8824C39.841 72.2284 38.7646 72.8566 37.8797 73.6896L28.7529 60.7753C28.5522 61.0712 28.3743 61.3899 28.2238 61.7267L28.1371 61.9179C27.7312 62.6736 27.3754 63.4656 27.0835 64.285L16.1732 92.3531L1.21635 113.634C-0.322121 115.778 0.171395 118.76 2.31832 120.294C3.16031 120.899 4.1364 121.186 5.0988 121.186C6.59029 121.186 8.05442 120.494 8.98945 119.192L25.3275 99.2631C25.5783 98.9126 25.7927 98.5394 25.9706 98.1433L29.209 90.8873C29.5374 95.4804 29.4279 101.439 28.3196 109.656C28.2283 110.329 28.1827 110.998 28.1691 111.663L16.0182 196.231C15.5164 199.723 18.9191 203.346 21.8245 203.524C24.7254 203.701 28.2283 201.23 28.6845 198.043L42.4363 128.756C43.791 129.316 44.6713 129.075 45.6337 128.906L43.2299 196.655C42.9608 200.174 45.3418 203.524 49.6155 203.524C52.8357 203.524 55.732 200.975 55.9875 197.62L62.2089 115.833C62.3274 115.318 62.4232 114.79 62.4962 114.253C64.7175 97.8383 63.8417 87.0818 62.5783 79.712C63.0299 73.5985 63.4358 67.7537 63.7551 62.0181Z" fill="white"/>
</g>
<defs>
<clipPath id="clip0">
<rect width="197.954" height="203.478" fill="white" transform="translate(0.163574 0.565002)"/>
</clipPath>
</defs>
</svg>
