<svg width="79" height="54" viewBox="0 0 79 54" fill="none" xmlns="http://www.w3.org/2000/svg">
<path d="M28.598 23.3684H28.44L25.28 23.6842C24.964 23.6842 24.648 23.6842 24.332 23.5263C22.594 22.7369 21.014 22.2631 19.434 22.2631C17.854 22.2631 16.274 22.7369 14.378 23.6842C13.43 24.1579 12.482 23.6842 12.008 22.8948C12.008 22.7369 11.85 22.7369 11.85 22.579C11.692 22.1053 11.692 21.4737 11.692 20.6842C11.692 19.2632 12.008 17.3684 12.482 15.7894C13.114 13.8947 14.22 12.3158 15.958 11.8421C16.274 11.8421 16.432 11.6842 16.748 11.8421C17.064 11.8421 17.38 12 17.538 12.1579L18.486 12.6316H18.644H19.276C20.698 13.2632 21.646 13.1053 22.278 12.6316C22.752 12.1579 23.226 11.3684 23.226 10.5789C23.384 9.78945 23.226 9 22.752 8.5263C22.436 8.05265 21.804 7.89475 20.856 8.21055C19.434 8.6842 16.906 9.4737 15.01 10.4211C13.746 11.0527 12.482 11.6842 12.166 12.3158C9.48 15.7894 6.794 20.6842 5.056 23.5263C4.42401 24.6315 3.95001 25.4211 3.63401 25.8948C3.47601 26.0527 3.47601 26.2105 3.47601 26.2105C3.47601 26.3684 3.95001 26.6842 4.58201 27.1579C5.056 27.4737 5.688 27.9473 6.478 28.421C9.164 30.4737 13.746 33.7895 18.486 33.1579C26.86 31.8948 30.02 51.7895 30.02 51.7895C30.178 52.737 29.546 53.684 28.598 53.842C27.65 54 26.702 53.3685 26.544 52.421C26.544 52.421 23.858 36 18.96 36.6316C12.956 37.4211 7.584 33.4737 4.42401 31.2631C3.79201 30.7894 3.16001 30.3158 2.84401 30.1579C1.26401 29.2105 0.47401 28.2631 0.15801 27.3158C-0.31599 26.0527 1.00657e-05 24.9473 0.79001 23.8421C0.94801 23.5263 1.42201 22.7368 2.05401 21.7894C3.63401 18.9473 6.478 13.8948 9.322 10.2632C10.112 9.1579 11.692 8.21055 13.588 7.26315C15.8 6.1579 18.486 5.21055 20.224 4.73684C22.91 3.94737 24.806 4.89474 25.912 6.3158C26.86 7.57895 27.176 9.3158 27.018 10.8947C26.86 12.4737 26.07 14.2105 24.806 15.3158C23.226 16.7368 20.856 17.3684 17.854 15.9473L17.538 15.7894L16.906 15.4737C16.59 15.6316 16.432 16.2632 16.116 16.8948V17.0527C15.8 17.8421 15.642 18.6316 15.642 19.579C16.906 19.1053 18.17 18.9473 19.592 18.9473C21.646 18.9473 23.542 19.2632 25.596 20.2105L28.124 19.8948C28.44 19.8948 30.02 19.5789 30.968 19.2631C29.388 16.8947 28.44 14.2105 28.44 12C28.44 6.3158 31.284 2.52631 34.918 0.94737C36.498 0.31579 38.078 0 39.5 0C41.08 0 42.502 0.31579 44.082 0.94737C47.716 2.52631 50.56 6.3158 50.56 12C50.56 14.2105 49.612 16.8947 48.032 19.2631C49.612 19.5789 52.614 19.8948 53.404 20.0527C55.458 19.1053 57.512 18.6316 59.408 18.7894C60.672 18.7894 61.936 19.1052 63.2 19.421C63.042 18.6316 62.884 17.8421 62.726 17.2105V17.0527C62.568 16.4211 62.252 15.9474 62.094 15.6316L61.62 15.7894L61.146 15.9473C58.144 17.3684 55.774 16.7368 54.194 15.3158C52.93 14.2105 52.298 12.6316 51.982 10.8947C51.824 9.1579 52.14 7.42105 53.088 6.1579L53.246 6C54.51 4.57895 56.406 3.78947 58.934 4.42105C60.514 4.89473 63.2 5.8421 65.57 6.94735C67.308 7.89475 69.046 8.8421 69.836 9.94735C72.522 13.5789 75.366 18.6316 77.104 21.4737C77.578 22.421 78.052 23.2105 78.368 23.5263C79.158 24.6315 79.316 25.7369 79 27C78.684 28.1052 77.736 29.0527 76.314 30C75.998 30.1579 75.366 30.6316 74.734 31.1052C71.574 33.4737 66.202 37.4211 60.198 36.4737C55.3 35.8421 52.772 51.9475 52.772 52.1055C52.614 53.0525 51.666 53.842 50.718 53.684C49.612 53.5265 48.98 52.579 49.138 51.6315C49.138 51.6315 52.456 31.7368 60.83 32.8421C65.412 33.4737 69.994 30.1579 72.68 28.1052C73.47 27.6315 74.102 27.1579 74.576 26.8421C75.208 26.5263 75.524 26.2105 75.682 26.0527L75.524 25.7369C75.366 25.4211 74.892 24.4737 74.102 23.3684C72.522 20.5263 69.678 15.6316 67.15 12.1579C66.676 11.5263 65.57 10.8948 64.306 10.2632C62.252 9.3158 59.882 8.3684 58.46 8.05265C57.512 7.73685 57.038 7.89475 56.722 8.3684C56.406 8.8421 56.248 9.6316 56.248 10.4211C56.406 11.2105 56.722 12 57.196 12.4737C57.828 12.9473 58.776 13.1052 60.04 12.4737L60.514 12.3158L61.462 12C61.778 11.8421 62.094 11.6842 62.41 11.6842C62.726 11.6842 63.042 11.6842 63.358 11.8421C65.096 12.3158 66.202 13.8947 66.834 15.7894C67.308 17.3684 67.624 19.2632 67.624 20.6842C67.624 21.4737 67.624 22.1053 67.466 22.579C67.466 22.7369 67.466 22.8948 67.308 22.8948C66.834 23.8421 65.728 24.1579 64.78 23.8421C63.042 23.0527 61.304 22.5789 59.882 22.421C58.302 22.421 56.88 22.7369 55.142 23.5263C54.826 23.6842 54.51 23.6842 54.194 23.6842C52.14 23.5263 48.348 23.2105 46.294 22.2631C44.556 24 42.502 25.2632 40.448 25.579C40.29 25.579 40.132 25.579 39.974 25.579C37.762 25.2632 35.708 24 33.97 22.1052C31.6 22.8947 28.914 23.3684 28.598 23.3684ZM36.498 4.26315C33.97 5.3684 32.074 8.05265 32.074 12.1579C32.074 14.0526 33.18 16.5789 34.76 18.6316C36.182 20.3684 37.92 21.7894 39.5 22.1052C41.238 21.7894 42.976 20.3684 44.24 18.6316C45.82 16.5789 46.926 14.0526 46.926 12.1579C46.926 8.05265 45.03 5.3684 42.502 4.26315C41.554 3.78947 40.448 3.63158 39.5 3.63158C38.552 3.63158 37.446 3.78947 36.498 4.26315ZM18.96 12.4737L19.276 12.6316C19.118 12.6316 18.96 12.6316 18.96 12.4737Z" fill="white"/>
</svg>
