<svg width="40" height="41" viewBox="0 0 40 41" fill="none" xmlns="http://www.w3.org/2000/svg">
<path fill-rule="evenodd" clip-rule="evenodd" d="M33.1251 36.8902H6.87633C5.46355 36.8902 4.42031 35.4986 4.95316 34.2188C7.42553 28.3012 13.2339 24.9111 19.9997 24.9111C26.7676 24.9111 32.5759 28.3012 35.0483 34.2188C35.5811 35.4986 34.5379 36.8902 33.1251 36.8902ZM11.8333 12.932C11.8333 8.52768 15.498 4.94593 19.9997 4.94593C24.5034 4.94593 28.1661 8.52768 28.1661 12.932C28.1661 17.3363 24.5034 20.9181 19.9997 20.9181C15.498 20.9181 11.8333 17.3363 11.8333 12.932ZM39.9113 36.1634C38.4271 29.4571 33.7845 24.5078 27.674 22.2617C30.912 19.7122 32.8005 15.5894 32.1063 11.0752C31.3019 5.83837 26.8472 1.64768 21.4696 1.03675C14.0464 0.192223 7.75014 5.84236 7.75014 12.932C7.75014 16.7054 9.53857 20.0675 12.3274 22.2617C6.21486 24.5078 1.57433 29.4571 0.0880485 36.1634C-0.450932 38.6012 1.55798 40.8832 4.10793 40.8832H35.8915C38.4435 40.8832 40.4524 38.6012 39.9113 36.1634Z" fill="white"/>
</svg>
